<?xml version="1.0" encoding="UTF-8"?><svg id="a" xmlns="http://www.w3.org/2000/svg" viewBox="0 0 1920.21 536.64"><g id="b" transform="translate(0 0.001)"><path id="c" d="M1920.19,152.54c-24.11-15.89-53-35.22-87.3-58.8C1685.7-7.44,1508.89-26.83,1307.39,36.13c-71.58,22.36-120.28,50.2-163.25,74.76-60,34.29-107.35,61.36-203.4,64.35-73.1,2.28-106.76-11.32-167.87-36.01-74.54-30.11-176.62-71.36-403.62-104.84C188.18,7.66,73.13,25.99,0,60.22v118.91c47.26-46.34,157.11-75.64,354.56-46.51,215.13,31.69,310.78,70.43,380.63,98.6,59.8,24.16,107.83,43.57,191,43.57,5.73,0,11.64-.09,17.71-.28,121.08-3.77,183.77-39.61,250.14-77.55,40.42-23.1,82.21-46.99,143.37-66.09,170.53-53.27,318.1-38.28,438.59,44.55,65.61,45.1,112.34,75.48,144.21,95.43l-.02-118.3Z" style="fill:#d9e9f3;"/><path id="d" d="M1920.19,246.54c-24.11-15.84-53-35.22-87.3-58.79-147.19-101.18-324-120.57-525.5-57.61-71.58,22.35-120.28,50.2-163.25,74.76-60,34.28-107.35,61.36-203.4,64.35-73.1,2.27-106.76-11.32-167.87-36.01-74.54-30.12-176.62-71.36-403.62-104.84C188.18,101.7,73.13,120.02,0,154.23v118.92c47.26-46.34,157.11-75.64,354.56-46.52,215.13,31.73,310.78,70.38,380.63,98.59,59.8,24.16,107.83,43.57,191,43.57,5.73,0,11.64-.09,17.71-.28,121.08-3.76,183.77-39.6,250.14-77.54,40.42-23.1,82.21-47,143.37-66.1,170.53-53.27,318.1-38.28,438.59,44.55,65.61,45.1,112.34,75.48,144.21,95.43l-.02-118.29Z" style="fill:#d9e9f3;"/><path id="e" d="M1920.19,320.39c-24.11-15.84-53-35.22-87.3-58.8-147.19-101.18-324-120.57-525.5-57.61-71.58,22.36-120.28,50.2-163.25,74.76-60,34.29-107.35,61.36-203.4,64.35-73.1,2.28-106.76-11.32-167.87-36.01-74.54-30.11-176.62-71.36-403.62-104.84C188.18,175.51,73.13,193.85,0,228.07v118.91c47.26-46.34,157.11-75.64,354.56-46.51,215.13,31.69,310.78,70.43,380.63,98.6,59.8,24.16,107.83,43.57,191,43.57,5.73,0,11.64-.09,17.71-.28,121.08-3.77,183.77-39.61,250.14-77.55,40.42-23.1,82.21-46.99,143.37-66.09,170.53-53.27,318.1-38.28,438.59,44.55,65.61,45.1,112.34,75.48,144.21,95.43l-.02-118.3Z" style="fill:#d9e9f3;"/><path id="f" d="M1920.19,414.4c-24.11-15.84-53-35.22-87.3-58.79-147.19-101.18-324-120.57-525.5-57.61-71.58,22.35-120.28,50.2-163.25,74.76-60,34.28-107.35,61.36-203.4,64.35-73.1,2.27-106.76-11.32-167.87-36.01-74.54-30.12-176.62-71.36-403.62-104.84-181.07-26.71-296.12-8.38-369.25,25.82v118.92c47.26-46.34,157.11-75.64,354.56-46.52,215.13,31.78,310.78,70.38,380.63,98.6,59.8,24.16,107.83,43.57,191,43.57,5.73,0,11.64-.09,17.71-.28,121.08-3.76,183.77-39.6,250.14-77.54,40.42-23.1,82.21-47,143.37-66.1,170.53-53.27,318.1-38.28,438.59,44.55,65.61,45.1,112.34,75.48,144.21,95.43l-.02-118.3Z" style="fill:#d9e9f3;"/></g></svg>